HIERARCHY
ROOT Hips
{
  OFFSET 5.84602e-005 68.8428 3.50346
  CHANNELS 6 Xposition Yposition Zposition Zrotation Xrotation Yrotation
  JOINT Spine
  {
    OFFSET 0 8.597 -4.6522
    CHANNELS 3 Zrotation Xrotation Yrotation
    JOINT Spine1
    {
      OFFSET 0 7.8454 0.4098
      CHANNELS 3 Zrotation Xrotation Yrotation
      JOINT Spine2
      {
        OFFSET 0 9.7078 -2.1609
        CHANNELS 3 Zrotation Xrotation Yrotation
        JOINT Neck
        {
          OFFSET 0 21.8761 -0.4549
          CHANNELS 3 Zrotation Xrotation Yrotation
          JOINT Head
          {
            OFFSET 0 12.3537 3.3602
            CHANNELS 3 Zrotation Xrotation Yrotation
            End Site
            {
              OFFSET 0.0001 18.9506 0.5657
            }
          }
        }
        JOINT LeftShoulder
        {
          OFFSET 2.2086 21.1115 7.2329
          CHANNELS 3 Zrotation Xrotation Yrotation
          JOINT LeftArm
          {
            OFFSET 13.1193 3.0282 -4.8998
            CHANNELS 3 Zrotation Xrotation Yrotation
            JOINT LeftForeArm
            {
              OFFSET 27.4081 -0.0973053 -0.2375
              CHANNELS 3 Zrotation Xrotation Yrotation
              JOINT LeftHand
              {
                OFFSET 22.8641 0.0662994 -0.1369
                CHANNELS 3 Zrotation Xrotation Yrotation
                JOINT LeftHandIndex1
                {
                  OFFSET 8.8614 0.775009 2.4612
                  CHANNELS 3 Zrotation Xrotation Yrotation
                  JOINT LeftHandIndex2
                  {
                    OFFSET 3.3146 -0.808304 0.5841
                    CHANNELS 3 Zrotation Xrotation Yrotation
                    JOINT LeftHandIndex3
                    {
                      OFFSET 2.2628 -0.552002 0.3989
                      CHANNELS 3 Zrotation Xrotation Yrotation
                      End Site
                      {
                        OFFSET 1.6102 -0.4807 0.2612
                      }
                    }
                  }
                }
                JOINT LeftHandMiddle1
                {
                  OFFSET 8.9937 0.895004 0.2143
                  CHANNELS 3 Zrotation Xrotation Yrotation
                  JOINT LeftHandMiddle2
                  {
                    OFFSET 4.0984 0.0113983 -0.0242
                    CHANNELS 3 Zrotation Xrotation Yrotation
                    JOINT LeftHandMiddle3
                    {
                      OFFSET 2.2716 0.00689697 -0.0138001
                      CHANNELS 3 Zrotation Xrotation Yrotation
                      End Site
                      {
                        OFFSET 2.0404 -0.1441 0.0027
                      }
                    }
                  }
                }
                JOINT LeftHandRing1
                {
                  OFFSET 8.5234 0.597198 -2.0164
                  CHANNELS 3 Zrotation Xrotation Yrotation
                  JOINT LeftHandRing2
                  {
                    OFFSET 3.7188 -0.188293 -0.2328
                    CHANNELS 3 Zrotation Xrotation Yrotation
                    JOINT LeftHandRing3
                    {
                      OFFSET 2.1191 -0.106598 -0.1332
                      CHANNELS 3 Zrotation Xrotation Yrotation
                      End Site
                      {
                        OFFSET 1.8737 -0.2304 -0.0886
                      }
                    }
                  }
                }
                JOINT LeftHandPinky1
                {
                  OFFSET 7.9094 -0.601089 -3.4825
                  CHANNELS 3 Zrotation Xrotation Yrotation
                  JOINT LeftHandPinky2
                  {
                    OFFSET 2.2874 -0.477005 -0.6314
                    CHANNELS 3 Zrotation Xrotation Yrotation
                    JOINT LeftHandPinky3
                    {
                      OFFSET 1.6774 -0.349396 -0.4633
                      CHANNELS 3 Zrotation Xrotation Yrotation
                      End Site
                      {
                        OFFSET 1.4888 -0.4091 -0.3416
                      }
                    }
                  }
                }
                JOINT LeftHandThumb1
                {
                  OFFSET 1.833 -1.3875 1.3896
                  CHANNELS 3 Zrotation Xrotation Yrotation
                  JOINT LeftHandThumb2
                  {
                    OFFSET 3.4129 -1.121 2.5732
                    CHANNELS 3 Zrotation Xrotation Yrotation
                    JOINT LeftHandThumb3
                    {
                      OFFSET 2.2474 -0.804199 1.6192
                      CHANNELS 3 Zrotation Xrotation Yrotation
                      End Site
                      {
                        OFFSET 1.6527 -0.5689 1.1317
                      }
                    }
                  }
                }
              }
            }
          }
        }
        JOINT RightShoulder
        {
          OFFSET -2.2086 21.1115 7.2329
          CHANNELS 3 Zrotation Xrotation Yrotation
          JOINT RightArm
          {
            OFFSET -13.1216 3.0287 -4.9007
            CHANNELS 3 Zrotation Xrotation Yrotation
            JOINT RightForeArm
            {
              OFFSET -27.4081 -0.0973053 -0.2375
              CHANNELS 3 Zrotation Xrotation Yrotation
              JOINT RightHand
              {
                OFFSET -22.8641 0.0664063 -0.1369
                CHANNELS 3 Zrotation Xrotation Yrotation
                JOINT RightHandIndex1
                {
                  OFFSET -8.8614 0.774994 2.4612
                  CHANNELS 3 Zrotation Xrotation Yrotation
                  JOINT RightHandIndex2
                  {
                    OFFSET -3.3146 -0.808304 0.5841
                    CHANNELS 3 Zrotation Xrotation Yrotation
                    JOINT RightHandIndex3
                    {
                      OFFSET -2.2628 -0.552002 0.3989
                      CHANNELS 3 Zrotation Xrotation Yrotation
                      End Site
                      {
                        OFFSET -1.6102 -0.4807 0.2612
                      }
                    }
                  }
                }
                JOINT RightHandMiddle1
                {
                  OFFSET -8.9937 0.894989 0.2143
                  CHANNELS 3 Zrotation Xrotation Yrotation
                  JOINT RightHandMiddle2
                  {
                    OFFSET -4.0984 0.0113983 -0.0242
                    CHANNELS 3 Zrotation Xrotation Yrotation
                    JOINT RightHandMiddle3
                    {
                      OFFSET -2.2716 0.00691223 -0.0138001
                      CHANNELS 3 Zrotation Xrotation Yrotation
                      End Site
                      {
                        OFFSET -2.0404 -0.1441 0.0027
                      }
                    }
                  }
                }
                JOINT RightHandRing1
                {
                  OFFSET -8.5234 0.597198 -2.0164
                  CHANNELS 3 Zrotation Xrotation Yrotation
                  JOINT RightHandRing2
                  {
                    OFFSET -3.7188 -0.188309 -0.2328
                    CHANNELS 3 Zrotation Xrotation Yrotation
                    JOINT RightHandRing3
                    {
                      OFFSET -2.1191 -0.106598 -0.1332
                      CHANNELS 3 Zrotation Xrotation Yrotation
                      End Site
                      {
                        OFFSET -1.8737 -0.2304 -0.0886
                      }
                    }
                  }
                }
                JOINT RightHandPinky1
                {
                  OFFSET -7.9094 -0.601105 -3.4825
                  CHANNELS 3 Zrotation Xrotation Yrotation
                  JOINT RightHandPinky2
                  {
                    OFFSET -2.2874 -0.477005 -0.6314
                    CHANNELS 3 Zrotation Xrotation Yrotation
                    JOINT RightHandPinky3
                    {
                      OFFSET -1.6774 -0.349396 -0.4633
                      CHANNELS 3 Zrotation Xrotation Yrotation
                      End Site
                      {
                        OFFSET -1.4888 -0.4091 -0.3416
                      }
                    }
                  }
                }
                JOINT RightHandThumb1
                {
                  OFFSET -1.833 -1.38751 1.3896
                  CHANNELS 3 Zrotation Xrotation Yrotation
                  JOINT RightHandThumb2
                  {
                    OFFSET -3.41299 -1.12099 2.5732
                    CHANNELS 3 Zrotation Xrotation Yrotation
                    JOINT RightHandThumb3
                    {
                      OFFSET -2.24741 -0.804108 1.6192
                      CHANNELS 3 Zrotation Xrotation Yrotation
                      End Site
                      {
                        OFFSET -1.6527 -0.5689 1.1317
                      }
                    }
                  }
                }
              }
            }
          }
        }
      }
    }
  }
  JOINT RightUpLeg
  {
    OFFSET -9.1966 3.8861 -0.7581
    CHANNELS 3 Zrotation Xrotation Yrotation
    JOINT RightLeg
    {
      OFFSET -0.7359 -41.0265 0
      CHANNELS 3 Zrotation Xrotation Yrotation
      JOINT RightFoot
      {
        OFFSET 0 -40.2855 0
        CHANNELS 3 Zrotation Xrotation Yrotation
        JOINT RightToeBase
        {
          OFFSET 0 -5.6122 11.7359
          CHANNELS 3 Zrotation Xrotation Yrotation
          End Site
          {
            OFFSET 0 0 7.8731
          }
        }
      }
    }
  }
  JOINT LeftUpLeg
  {
    OFFSET 9.1965 3.8864 -0.7581
    CHANNELS 3 Zrotation Xrotation Yrotation
    JOINT LeftLeg
    {
      OFFSET 0.7359 -41.0268 0
      CHANNELS 3 Zrotation Xrotation Yrotation
      JOINT LeftFoot
      {
        OFFSET 0 -40.2855 0
        CHANNELS 3 Zrotation Xrotation Yrotation
        JOINT LeftToeBase
        {
          OFFSET 0 -5.6122 11.7359
          CHANNELS 3 Zrotation Xrotation Yrotation
          End Site
          {
            OFFSET 0 0 7.8731
          }
        }
      }
    }
  }
}
MOTION
Frames:	6
Frame Time:	0.0333333
39.7473 0.349752 9.88875 -0 -79.6006 -0 -0.0196487 3.70132 -0.105949 -0.0325241 7.40266 -0.211287 -0.0325242 7.40266 -0.211287 -9.97038 -14.7751 -21.8504 1.00002e-006 -35.9013 1.74634e-006 -0.543676 19.1876 -24.1854 -48.6703 9.23375 -5.33254 -3.43451 11.4475 -18.0177 -8.52455 36.3475 -11.5175 -4.70623e-007 -2.19086e-007 5.25361e-008 1.66685e-006 -9.5189e-007 -2.65379e-007 -4.70623e-007 -2.19085e-007 5.25361e-008 -4.70623e-007 -2.19086e-007 5.25361e-008 -0.0146004 -9.0879e-005 3.04977e-006 3.18055e-015 -6.95746e-016 -1.98785e-016 -4.70623e-007 -2.19086e-007 5.25361e-008 -0.018763 -0.00117613 5.50511e-005 3.18055e-015 -9.93923e-017 -5.96354e-016 -4.70623e-007 -2.19086e-007 5.25361e-008 -0.0122643 -0.00324697 0.000669841 2.06902e-033 5.96354e-016 -1.98785e-016 -4.70623e-007 -2.19086e-007 5.25361e-008 1.66685e-006 -9.5189e-007 -2.65379e-007 -4.70623e-007 -2.19085e-007 5.25361e-008 1.29273 19.3299 24.1447 48.4118 9.22271 5.3589 3.21007 11.3995 17.7076 8.48666 36.3933 11.8512 -4.70788e-007 1.27134e-007 7.87288e-008 9.54166e-015 -3.97569e-016 -1.98785e-016 3.18055e-015 -4.96962e-016 -3.97569e-016 -4.70788e-007 1.27134e-007 7.87288e-008 0.0149928 -9.06769e-005 8.63844e-007 6.36111e-015 2.98177e-016 3.97569e-016 -4.70788e-007 1.27134e-007 7.87288e-008 0.0190051 -0.00119329 -7.01684e-005 -1.03451e-033 -9.93923e-017 -5.96354e-016 -4.70788e-007 1.27134e-007 7.87288e-008 0.0122645 -0.00324786 -0.000681208 4.69723e-007 -1.26858e-007 -7.86694e-008 -4.70788e-007 1.27134e-007 7.87288e-008 9.54166e-015 -3.97569e-016 -1.98785e-016 3.18055e-015 -4.96962e-016 -3.97569e-016 178.505 -16.5123 169.882 -166.33 40.6097 135.523 -1.74434 50.6128 -8.22075 6.03916e-007 7.24741e-007 2.47919e-006 -176.875 -16.2306 -168.982 166.351 40.67 -135.546 1.68878 50.5211 8.26138 3.65109e-006 -9.83666e-007 -6.56773e-008 
39.7469 0.282695 9.84263 -0 -79.1999 -0 -0.0192559 3.60107 -0.106125 -0.0319081 7.20215 -0.211663 -0.031908 7.20215 -0.211664 -10.0462 -14.7742 -22.0138 3.69027e-007 -36.1215 -6.4789e-007 -1.15862 19.5406 -24.1157 -48.2812 9.17911 -5.35622 -3.26334 11.3908 -17.5274 -8.21299 36.4199 -11.9498 3.18055e-015 -9.93923e-016 -0 3.18055e-015 -9.93923e-016 3.97569e-016 3.18055e-015 -8.94531e-016 1.98785e-016 3.18055e-015 -9.93923e-016 -0 -0.0146034 -8.89354e-005 -1.77153e-006 6.89673e-034 1.98785e-016 -1.98785e-016 3.18055e-015 -9.93923e-016 -0 -0.0187559 -0.00117578 5.0438e-005 -4.73296e-007 -2.19231e-007 5.24698e-008 3.18055e-015 -9.93923e-016 -0 -0.01229 -0.00325282 0.000674271 -1.10348e-032 -1.59028e-015 -3.97569e-016 3.18055e-015 -9.93923e-016 -0 3.18055e-015 -9.93923e-016 3.97569e-016 3.18055e-015 -8.94531e-016 1.98785e-016 1.92713 19.6924 24.0672 47.997 9.1652 5.37651 3.03642 11.3439 17.2256 8.18105 36.4645 12.2831 -4.75048e-007 1.27362e-007 7.87527e-008 3.18055e-015 -2.98177e-016 1.98785e-016 2.75869e-033 -3.97569e-016 3.97569e-016 -4.75048e-007 1.27362e-007 7.87527e-008 0.0149999 -9.07282e-005 1.2969e-006 -3.18055e-015 3.97569e-016 5.96354e-016 -4.75048e-007 1.27362e-007 7.87527e-008 0.0189998 -0.00119477 -6.51501e-005 -4.73399e-007 1.27271e-007 7.87309e-008 -4.75048e-007 1.27362e-007 7.87527e-008 0.0122849 -0.00325192 -0.000671483 0 0 -0 -4.75048e-007 1.27362e-007 7.87527e-008 3.18055e-015 -2.98177e-016 1.98785e-016 2.75869e-033 -3.97569e-016 3.97569e-016 178.444 -16.1323 169.853 -166.318 40.6392 135.512 -1.7433 50.6106 -8.22153 -1.14298e-006 8.19872e-008 1.98327e-006 -176.906 -15.8345 -169.009 166.352 40.6675 -135.548 1.68929 50.5223 8.26084 8.71069e-007 -3.18291e-006 -1.57066e-006 
39.7465 0.215537 9.79613 -0 -78.7993 -0 -0.0188613 3.50087 -0.106304 -0.0312888 7.00171 -0.212046 -0.0312888 7.00172 -0.212046 -10.1221 -14.7733 -22.1771 -5.2335e-006 -36.3416 -8.64941e-006 -1.77528 19.8927 -24.0418 -47.8921 9.12429 -5.37951 -3.09172 11.3356 -17.037 -7.90052 36.4905 -12.3829 -6.36111e-015 -1.21259e-014 1.98785e-016 -6.36111e-015 -1.33186e-014 -1.98785e-016 -6.36111e-015 -1.31198e-014 1.98785e-016 -6.36111e-015 -1.21259e-014 1.98785e-016 -0.0146156 -8.87732e-005 2.42913e-006 -9.54166e-015 0 -3.97569e-016 -6.36111e-015 -1.21259e-014 1.98785e-016 -0.018759 -0.00117416 4.55329e-005 -3.18055e-015 1.10325e-014 5.1684e-015 -6.36111e-015 -1.21259e-014 1.98785e-016 -0.0122719 -0.00324994 0.000685849 -6.36111e-015 4.96962e-016 -0 -6.36111e-015 -1.21259e-014 1.98785e-016 -6.36111e-015 -1.33186e-014 -1.98785e-016 -6.36111e-015 -1.31198e-014 1.98785e-016 2.56341 20.0539 23.9853 47.5822 9.10756 5.39369 2.86234 11.2898 16.7437 7.87454 36.5339 12.7159 -6.36111e-015 8.94531e-016 1.98785e-016 -6.36111e-015 4.96962e-016 1.98785e-016 -6.36111e-015 5.96354e-016 3.97569e-016 -6.36111e-015 8.94531e-016 1.98785e-016 0.014986 -9.27545e-005 -2.83842e-006 -6.36111e-015 2.98177e-016 3.97569e-016 -6.36111e-015 8.94531e-016 1.98785e-016 0.0189834 -0.00119011 -6.10974e-005 6.36111e-015 5.96354e-016 1.98785e-016 -6.36111e-015 8.94531e-016 1.98785e-016 0.0122687 -0.0032489 -0.000678047 -3.18055e-015 1.21259e-014 -4.77083e-015 -6.36111e-015 8.94531e-016 1.98785e-016 -6.36111e-015 4.96962e-016 1.98785e-016 -6.36111e-015 5.96354e-016 3.97569e-016 178.384 -15.7117 169.826 -166.322 40.63 135.515 -1.74226 50.6084 -8.22227 1.57486e-006 -2.39552e-008 -1.7709e-006 -176.936 -15.4436 -169.036 166.351 40.67 -135.547 1.68985 50.5235 8.26024 -6.47484e-008 5.26868e-007 -3.65101e-006 
39.7461 0.148282 9.74925 -0 -78.3987 -0 -0.0184675 3.40058 -0.106484 -0.030672 6.8012 -0.212431 -0.030672 6.8012 -0.212432 -10.198 -14.772 -22.3404 3.11532e-006 -36.5615 7.19318e-007 -2.39367 20.2441 -23.9637 -47.5032 9.06935 -5.40243 -2.91968 11.2818 -16.5466 -7.58712 36.5591 -12.8168 -9.54166e-015 -1.98785e-016 -0 -9.54166e-015 9.93923e-017 -1.98785e-016 -1.27222e-014 -3.97569e-016 -0 -9.54166e-015 -1.98785e-016 -0 -0.0146013 -8.81004e-005 2.14853e-006 -3.18055e-015 -1.36167e-014 1.98785e-016 -9.54166e-015 -1.98785e-016 -0 -0.018751 -0.00117218 5.06067e-005 -1.27222e-014 -1.32192e-014 -3.97569e-016 -9.54166e-015 -1.98785e-016 -0 -0.0122833 -0.00325177 0.000681053 -3.18055e-015 2.98177e-016 -3.97569e-016 -9.54166e-015 -1.98785e-016 -0 -9.54166e-015 9.93923e-017 -1.98785e-016 -1.27222e-014 -3.97569e-016 -0 3.20158 20.4146 23.8989 47.1676 9.04981 5.41045 2.68785 11.237 16.2617 7.56713 36.6014 13.1494 4.83553e-007 -1.28217e-007 -7.88107e-008 6.36111e-015 -1.35174e-014 5.96354e-016 -3.18055e-015 -1.36167e-014 3.97569e-016 4.83553e-007 -1.28217e-007 -7.88107e-008 0.0149837 -9.03595e-005 -2.57935e-006 3.7932e-033 -1.09332e-015 1.98785e-016 4.83553e-007 -1.28217e-007 -7.88107e-008 0.0189988 -0.00119144 -6.01962e-005 -3.18055e-015 1.20265e-014 -4.77083e-015 4.83553e-007 -1.28217e-007 -7.88107e-008 0.0122733 -0.00325072 -0.000683194 3.18055e-015 -7.95139e-016 -0 4.83553e-007 -1.28217e-007 -7.88107e-008 6.36111e-015 -1.35174e-014 5.96354e-016 -3.18055e-015 -1.36167e-014 3.97569e-016 178.324 -15.3273 169.799 -166.312 40.6552 135.506 -1.74129 50.6063 -8.22298 -1.44873e-006 -2.82796e-007 7.45728e-007 -176.966 -15.0525 -169.062 166.35 40.6723 -135.547 1.69043 50.5247 8.25965 1.44753e-006 -2.87756e-007 -7.55908e-007 
39.7457 0.0809435 9.70199 -0 -77.9981 -0 -0.0180746 3.30038 -0.106659 -0.0300582 6.60076 -0.212804 -0.0300582 6.60077 -0.212804 -10.2737 -14.7705 -22.5035 3.49764e-006 -36.7812 6.32017e-006 -3.01381 20.5945 -23.8814 -47.1144 9.01424 -5.42496 -2.74725 11.2295 -16.0562 -7.27284 36.6259 -13.2516 -2.22639e-014 -1.98785e-016 -1.59028e-015 -1.90833e-014 3.97569e-016 -1.19271e-015 -1.90833e-014 3.97569e-016 -1.19271e-015 -2.22639e-014 -1.98785e-016 -1.59028e-015 -0.0146032 -8.77449e-005 -3.66288e-006 -6.36111e-015 -1.32192e-014 -0 -2.22639e-014 -1.98785e-016 -1.59028e-015 -0.0187607 -0.00117396 5.91223e-005 6.36111e-015 -6.95746e-016 3.97569e-016 -2.22639e-014 -1.98785e-016 -1.59028e-015 -0.01228 -0.0032505 0.000676989 -9.82784e-031 1.13307e-014 4.96962e-015 -2.22639e-014 -1.98785e-016 -1.59028e-015 -1.90833e-014 3.97569e-016 -1.19271e-015 -1.90833e-014 3.97569e-016 -1.19271e-015 3.84163 20.7742 23.8081 46.7532 8.99193 5.42677 2.51297 11.1858 15.7798 7.25883 36.667 13.5838 6.36111e-015 -1.98785e-016 3.97569e-016 9.54166e-015 -1.98785e-016 3.97569e-016 3.18055e-015 -9.93923e-017 3.97569e-016 6.36111e-015 -1.98785e-016 3.97569e-016 0.0149844 -9.26827e-005 -6.23946e-006 3.18055e-015 -2.98177e-016 -5.96354e-016 6.36111e-015 -1.98785e-016 3.97569e-016 0.0189856 -0.00118916 -6.02218e-005 1.90833e-014 -8.94531e-016 1.19271e-015 6.36111e-015 -1.98785e-016 3.97569e-016 0.0122727 -0.00324779 -0.000669686 -6.36111e-015 -2.98177e-016 -0 6.36111e-015 -1.98785e-016 3.97569e-016 9.54166e-015 -1.98785e-016 3.97569e-016 3.18055e-015 -9.93923e-017 3.97569e-016 178.265 -14.8994 169.773 -166.318 40.6391 135.511 -1.74031 50.6041 -8.22369 3.55063e-006 -1.19992e-006 6.64363e-006 -176.996 -14.6555 -169.089 166.351 40.669 -135.548 1.69092 50.5259 8.2591 3.18055e-015 3.18055e-015 5.1684e-015 
39.7453 0.0135113 9.65436 -0 -77.5976 -0 -0.0176826 3.20017 -0.106826 -0.0294472 6.40037 -0.21316 -0.0294471 6.40036 -0.21316 -10.3495 -14.7688 -22.6668 7.9539e-006 -37.0008 2.78044e-006 -3.6357 20.9439 -23.7949 -46.7257 8.95899 -5.44714 -2.57443 11.1786 -15.5659 -6.95766 36.6907 -13.6871 -3.18055e-015 7.95139e-016 3.97569e-016 -1.03451e-033 2.98177e-016 1.98785e-016 -2.06902e-033 2.98177e-016 3.97569e-016 -3.18055e-015 7.95139e-016 3.97569e-016 -0.0146146 -8.90298e-005 4.55767e-006 6.89673e-034 -1.98785e-016 1.98785e-016 -3.18055e-015 7.95139e-016 3.97569e-016 -0.0187515 -0.00117439 4.8426e-005 1.37935e-033 -3.97569e-016 1.98785e-016 -3.18055e-015 7.95139e-016 3.97569e-016 -0.0122546 -0.00324294 0.000679401 3.18055e-015 4.96962e-016 1.98785e-016 -3.18055e-015 7.95139e-016 3.97569e-016 -1.03451e-033 2.98177e-016 1.98785e-016 -2.06902e-033 2.98177e-016 3.97569e-016 4.48358 21.1327 23.7127 46.3388 8.93396 5.44267 2.33776 11.136 15.2979 6.94971 36.7308 14.019 1.27222e-014 -8.94531e-016 1.98785e-016 6.36111e-015 -1.19271e-015 -0 6.36111e-015 -1.19271e-015 3.97569e-016 1.27222e-014 -8.94531e-016 1.98785e-016 0.0149941 -9.07496e-005 -5.0857e-007 3.18055e-015 9.93923e-017 1.98785e-016 1.27222e-014 -8.94531e-016 1.98785e-016 0.0190003 -0.00118945 -5.91268e-005 -3.18055e-015 7.95139e-016 -1.98785e-016 1.27222e-014 -8.94531e-016 1.98785e-016 0.0122648 -0.00324844 -0.000674951 -0 -1.10325e-014 -0 1.27222e-014 -8.94531e-016 1.98785e-016 6.36111e-015 -1.19271e-015 -0 6.36111e-015 -1.19271e-015 3.97569e-016 178.206 -14.521 169.747 -166.306 40.67 135.5 -1.73929 50.6019 -8.22444 2.78299e-015 -3.18055e-015 3.97569e-016 -177.026 -14.2605 -169.114 166.352 40.6675 -135.549 1.69149 50.5271 8.25852 7.79924e-007 -8.28159e-007 2.42032e-006 
